<?xml version="1.0" encoding="UTF-8"?>
<!DOCTYPE svg PUBLIC "-//W3C//DTD SVG 1.1//EN" "http://www.w3.org/Graphics/SVG/1.1/DTD/svg11.dtd">
<!-- Creator: CorelDRAW (Versão de avaliação) -->
<svg xmlns="http://www.w3.org/2000/svg" xml:space="preserve" width="19.7177mm" height="19.7177mm" version="1.1" style="shape-rendering:geometricPrecision; text-rendering:geometricPrecision; image-rendering:optimizeQuality; fill-rule:evenodd; clip-rule:evenodd"
viewBox="0 0 49.63 49.63"
 xmlns:xlink="http://www.w3.org/1999/xlink"
 xmlns:xodm="http://www.corel.com/coreldraw/odm/2003">
 <defs>
  <style type="text/css">
   <![CDATA[
    .fil0 {fill:none}
    .fil1 {fill:white}
    .fil2 {fill:black;fill-rule:nonzero}
    .fil3 {fill:lime;fill-rule:nonzero}
   ]]>
  </style>
 </defs>
 <g id="Camada_x0020_1">
  <metadata id="CorelCorpID_0Corel-Layer"/>
  <rect class="fil0" x="-0" y="-0" width="49.63" height="49.63" rx="7.04" ry="7.04"/>
  <g id="_1871925759120">
   <path class="fil1" d="M46.55 41.56c0,-0.16 -0.07,-0.22 -0.12,-0.35 -0.05,-0.13 -0.09,-0.26 -0.13,-0.38 -0.3,-0.84 -0.21,-0.78 -0.69,-1.36 -0.1,-0.12 -0.05,-0.18 -0.01,-0.36 0.36,-1.36 1.23,-4.01 1.24,-5.34 0,-0.19 0.03,-0.24 0.04,-0.41l0 -0.48c-0.01,-0.5 -0.03,-0.98 -0.14,-1.45 -0.04,-0.16 -0.08,-0.24 -0.08,-0.43 -0.02,-0.94 -0.11,-1.88 -0.27,-2.81 -0.53,-3.14 -2.14,-6.25 -4.35,-8.3 -0.11,-0.1 -0.17,-0.13 -0.27,-0.24 -0.39,-0.4 -1.28,-1.1 -1.73,-1.34 0.09,-0.13 0.26,-0.23 0.39,-0.34l1.26 -1c1.33,-1.08 2.06,-1.57 2.69,-3.31 0.04,-0.1 0.05,-0.19 0.08,-0.29 0.54,-2.06 0.01,-4.07 -1.45,-5.6 -0.08,-0.09 -0.09,-0.11 -0.17,-0.2l-2.3 -2.19 -2.7 -1.84c-0.17,-0.1 -0.33,-0.16 -0.5,-0.26 -1.02,-0.62 -3.16,-1.41 -4.27,-1.73 -0.81,-0.23 -1.6,-0.4 -2.43,-0.57 -1.46,-0.29 -3.01,-0.46 -4.58,-0.51l-1.98 0c-2.36,0.08 -4.72,0.43 -6.86,1.09 -1.49,0.46 -2.87,1.04 -4.21,1.78 -1.22,0.68 -2.49,1.56 -3.47,2.53l-0.95 0.91c-0.53,0.6 -1.03,1.22 -1.49,1.87 -0.31,0.44 -0.63,0.91 -0.87,1.4l-0.51 1.02c-0.7,1.45 -1.11,3.04 -1.34,4.65 -0.06,0.43 -0.13,0.93 -0.13,1.37 -0,0.24 0.02,0.49 -0.01,0.72 -0.04,0.27 0.01,0.39 0.01,0.7 -0.01,1.01 0.14,1.91 0.28,2.75 0.04,0.24 0.07,0.39 0.13,0.6 0.05,0.19 0.09,0.41 0.15,0.62 0.06,0.2 0.11,0.39 0.16,0.57 0.06,0.21 0.13,0.35 0.2,0.57 0.53,1.58 1.45,2.97 2.47,4.26l1.1 1.2c-0.21,0.29 -3.62,2.61 -4.29,3.28 -1.1,1.11 -1.67,2.48 -1.71,3.89l0 0.32c0.03,1.08 0.37,2.16 1.02,3.15 0.34,0.51 0.84,1.16 1.25,1.6 0.48,0.51 1.21,1.38 1.71,1.76l0.68 0.6c1.89,1.59 4.08,2.87 6.41,3.71 1.89,0.68 4.06,1.23 6.14,1.46l1.69 0.18c0.58,0.08 1.29,0.04 1.79,0.11 0.03,0 0.06,0.01 0.09,0.01l1.99 0c1.15,-0.03 2.4,-0.1 2.83,-0.16 1.84,-0.23 3.51,-0.48 5.26,-1.06l1.41 -0.49c0.05,-0.02 0.55,-0.1 0.55,-0.1 0.12,0 0.61,0.39 0.74,0.48 0.68,0.5 1.93,0.9 2.79,1.01 0.38,0.05 0.72,0.06 1.18,0.06 0.79,0 1.45,-0.14 2.18,-0.38 0.62,-0.21 1.12,-0.51 1.65,-0.87 0.34,-0.22 1.06,-0.94 1.29,-1.23 0.11,-0.14 0.18,-0.21 0.24,-0.38 0.18,-0.46 0.81,-1.23 0.93,-2.25 0.04,-0.38 0.1,-0.75 0.1,-1.18 0,-0.31 -0.02,-0.66 -0.13,-0.97 -0.01,-0.04 -0.04,-0.05 -0.01,-0.09z"/>
   <polygon class="fil1" points="46.55,41.56 46.55,41.59 46.59,41.56 "/>
  </g>
  <path class="fil2" d="M38.96 11.84c-1.12,-1.37 -2.43,-2.47 -3.92,-3.3 -1.49,-0.83 -3.1,-1.44 -4.8,-1.81 -1.71,-0.37 -3.45,-0.55 -5.21,-0.55 -2.25,0.01 -4.3,0.29 -6.14,0.86 -1.84,0.57 -3.43,1.38 -4.76,2.42 -1.33,1.04 -2.36,2.29 -3.08,3.74 -0.72,1.44 -1.09,3.05 -1.09,4.82 0,1.69 0.31,3.13 0.88,4.32 0.56,1.19 1.33,2.18 2.3,2.97 0.96,0.79 2.04,1.44 3.25,1.95 1.2,0.5 2.44,0.93 3.72,1.25 1.28,0.32 2.52,0.61 3.73,0.86 1.2,0.25 2.28,0.52 3.25,0.81 0.96,0.28 1.73,0.64 2.3,1.07 0.56,0.42 0.86,0.98 0.87,1.65 0.01,0.53 -0.19,1.04 -0.59,1.51 -0.4,0.47 -1.03,0.86 -1.9,1.16 -0.87,0.3 -2.01,0.47 -3.41,0.47 -1.92,0 -3.67,-0.39 -5.26,-1.15 -1.6,-0.76 -2.98,-1.84 -4.16,-3.22l-6.45 4.8c0.99,1.36 2.1,2.49 3.32,3.4 1.22,0.9 2.53,1.62 3.93,2.15 1.41,0.53 2.89,0.9 4.45,1.12 1.55,0.22 3.17,0.33 4.85,0.32 2.19,-0.01 4.15,-0.24 5.87,-0.67 1.72,-0.44 3.21,-1.05 4.47,-1.83 1.26,-0.78 2.31,-1.68 3.13,-2.69 0.83,-1.01 1.44,-2.1 1.84,-3.26 0.4,-1.16 0.61,-2.33 0.6,-3.53 -0.01,-1.82 -0.31,-3.36 -0.88,-4.63 -0.58,-1.26 -1.36,-2.31 -2.33,-3.13 -0.97,-0.82 -2.08,-1.49 -3.3,-1.99 -1.22,-0.5 -2.48,-0.92 -3.78,-1.23 -1.3,-0.3 -2.56,-0.57 -3.78,-0.8 -1.22,-0.23 -2.32,-0.48 -3.3,-0.75 -0.98,-0.27 -1.75,-0.63 -2.33,-1.06 -0.58,-0.43 -0.88,-1.01 -0.88,-1.72 -0,-0.55 0.2,-1.02 0.58,-1.4 0.38,-0.38 0.9,-0.68 1.57,-0.87 0.68,-0.2 1.46,-0.29 2.36,-0.29 1.63,-0 3.08,0.24 4.36,0.74 1.28,0.5 2.44,1.32 3.47,2.45l6.25 -4.94z"/>
  <path class="fil3" d="M40.84 34.84c-0.44,1.55 -0.73,2.61 -0.87,3.18 -0.28,1.17 -0.42,2.11 -0.42,2.83 0,0.43 0.05,0.8 0.15,1.12 0.1,0.31 0.3,0.47 0.6,0.48 0.04,0 0.09,0 0.15,0 0.07,-0.01 0.11,-0.01 0.13,-0.01 0.22,0 0.35,0.11 0.39,0.31 0.03,0.12 -0.05,0.22 -0.23,0.32 -0.18,0.1 -0.4,0.14 -0.64,0.14 -0.73,-0.01 -1.17,-0.39 -1.33,-1.15 -0.08,-0.36 -0.12,-0.76 -0.12,-1.19 0,-0.79 0.14,-1.79 0.43,-2.99 0.29,-1.09 0.58,-2.19 0.87,-3.29 0.12,-0.49 0.18,-0.89 0.18,-1.2 0,-0.22 -0.03,-0.33 -0.1,-0.34 -0.22,-0.04 -0.94,0.92 -2.17,2.88 -0.89,1.41 -1.82,2.99 -2.81,4.74 -0.46,0.82 -0.86,1.22 -1.21,1.22 -0.4,-0 -0.6,-0.26 -0.6,-0.77 0,-0.18 0.03,-0.37 0.09,-0.57 0.43,-1.36 1.09,-3.5 1.99,-6.42 0.37,-1.23 0.55,-1.97 0.55,-2.21 0,-0.08 -0.01,-0.12 -0.04,-0.13 -0.35,-0.16 -1.46,1.08 -3.33,3.72 -1.3,1.83 -2.77,4.06 -4.43,6.69 -0.05,0.09 -0.1,0.18 -0.16,0.28 -0.09,0.07 -0.28,0.09 -0.57,0.07 -0.35,-0.03 -0.52,-0.19 -0.52,-0.46 0,-0.1 0.02,-0.2 0.06,-0.31 1.1,-3.1 1.67,-4.74 1.73,-4.91 0.44,-1.31 0.86,-2.84 1.26,-4.6 0.08,-0.36 0.12,-0.77 0.12,-1.22 0,-1.71 -0.58,-2.62 -1.75,-2.72 -0.14,-0.01 -0.28,-0.02 -0.43,-0.02 -1.57,-0.02 -3.08,0.55 -4.53,1.71 -1.17,0.93 -2.02,1.97 -2.57,3.13 -0.33,0.69 -0.49,1.35 -0.49,1.98 0,0.76 0.25,1.37 0.76,1.83 0.53,0.49 1.28,0.82 2.24,1 0.64,0.12 1.6,0.19 2.9,0.23 0.53,0.02 0.79,0.16 0.78,0.42 -0.01,0.24 -0.32,0.36 -0.94,0.34 -1.28,-0.03 -2.28,-0.13 -3.01,-0.27 -1.08,-0.21 -1.96,-0.57 -2.65,-1.09 -0.73,-0.55 -1.09,-1.33 -1.09,-2.35 0,-0.77 0.2,-1.58 0.61,-2.43 0.68,-1.41 1.7,-2.6 3.08,-3.56 1.53,-1.08 3.14,-1.61 4.84,-1.59 0.22,0 0.43,0.02 0.64,0.04 0.77,0.08 1.37,0.36 1.81,0.86 0.5,0.56 0.75,1.35 0.75,2.36 0,0.49 -0.06,1.02 -0.18,1.6 -0.28,1.34 -0.69,2.8 -1.23,4.38 -0.35,0.95 -0.7,1.89 -1.05,2.84 0.19,-0.23 0.38,-0.46 0.58,-0.68 0.33,-0.44 0.58,-0.78 0.75,-1.02 0.8,-1.15 1.6,-2.29 2.4,-3.44 0.8,-1.15 1.53,-2.07 2.18,-2.77 0.65,-0.7 1.22,-1.05 1.72,-1.04 0.1,0 0.19,0.01 0.28,0.03 0.3,0.07 0.45,0.35 0.45,0.83 0,0.34 -0.08,0.84 -0.25,1.48 -0.33,1.24 -0.84,2.84 -1.52,4.81 -0.35,1.01 -0.52,1.55 -0.52,1.59 0,0.02 0.01,0.03 0.01,0.04 0.04,0.01 0.33,-0.41 0.87,-1.27 0.69,-1.12 1.38,-2.24 2.06,-3.35 0.68,-1.07 1.23,-1.82 1.64,-2.24 0.52,-0.54 1.01,-0.78 1.47,-0.72 0.38,0.05 0.57,0.4 0.57,1.03 0,0.48 -0.11,1.1 -0.33,1.86z"/>
 </g>
</svg>
