<?xml version="1.0" encoding="UTF-8"?>
<!DOCTYPE svg PUBLIC "-//W3C//DTD SVG 1.1//EN" "http://www.w3.org/Graphics/SVG/1.1/DTD/svg11.dtd">
<!-- Creator: CorelDRAW (Versão de avaliação) -->
<svg xmlns="http://www.w3.org/2000/svg" xml:space="preserve" width="86.1822mm" height="21.4484mm" version="1.1" style="shape-rendering:geometricPrecision; text-rendering:geometricPrecision; image-rendering:optimizeQuality; fill-rule:evenodd; clip-rule:evenodd"
viewBox="260 120 8200 1820"
 xmlns:xlink="http://www.w3.org/1999/xlink"
 xmlns:xodm="http://www.corel.com/coreldraw/odm/2003">
 <defs>
  <style type="text/css">
   <![CDATA[
    .fil1 {fill:white;fill-rule:nonzero}
    .fil0 {fill:none;fill-rule:nonzero}
   ]]>
  </style>
 </defs>
 <g id="Camada_x0020_1">
  <metadata id="CorelCorpID_0Corel-Layer"/>
  <g id="_1872149227376">
   <path class="fil0" d="M1464.1 183.53c41.06,23.89 78.96,50.49 113.65,79.71 45.6,-67.2 122.63,-111.36 209.96,-111.36l380.18 0c140.04,0 253.57,113.53 253.57,253.57l0 137.67c36.2,12.12 68.76,32.19 95.6,58.12l14.54 -7.75c32.67,-16.84 67.52,-31.45 104.51,-43.93 36.04,-12.18 71.71,-21.58 107.08,-28.37 30.53,-5.87 64.86,-10.53 102.89,-14 33.73,-3.08 67.89,-4.56 102.4,-4.47 52.71,0.1 95.56,1.55 128.66,4.26 42.08,3.45 82.14,8.89 120.07,16.22 40.2,7.78 76.16,16.92 107.83,27.38 35.85,11.84 69.96,26.47 102.34,43.88l3.45 1.87c45.08,-41.18 105.08,-66.3 170.95,-66.3l380.18 0c41.71,0 81.07,10.07 115.77,27.91l18.14 -6.8c27.54,-10.06 53.89,-18.27 79.01,-24.63l17.73 -4.3 0 -191.59c0,-140.04 113.53,-253.57 253.57,-253.57l380.18 0c38.21,0 74.44,8.47 106.93,23.61 38.67,-18.78 77.95,-34.98 117.86,-48.62 105.49,-36.04 215.06,-53.36 328.68,-51.97 21.1,0.29 35.73,0.69 43.86,1.17 14.65,0.87 29.01,2.09 43.08,3.6l-0.01 0.11c67.94,7.3 130,24.87 186.12,52.64 61.09,30.25 113.74,71.39 157.94,123.4 46.43,54.83 80.99,119.47 103.6,193.88 5.09,16.77 9.54,33.8 13.36,51.1 19.24,-15.98 38.51,-30.09 57.78,-42.3 69.8,-44.2 142.04,-65.84 216.62,-64.9 18.49,0.17 32.01,0.83 40.95,1.89 15.27,1.83 29.41,4.29 42.4,7.39l-0.06 0.27 3.02 0.72c91.69,23.14 156.67,70.14 194.97,141.04 58.48,-24.53 118.26,-33.4 179.36,-26.61 4.49,0.42 9,0.95 13.51,1.61 70.41,10.42 128.26,38.99 173.56,85.67 7.02,-7.69 14.41,-14.85 22.11,-21.46 13.15,-12.2 26.71,-22.83 40.62,-31.88 46.66,-30.32 96.89,-45.25 151.05,-44.62l1 0.02c32.88,0.4 64.58,5.92 94.8,16.65 18.33,6.51 37.64,15.51 57.85,26.96l5.05 2.95c23.49,12.91 43.47,26.43 59.88,40.5 26.93,23.11 48.28,48.36 64.05,75.77 9.37,-52.03 28.76,-97.95 58.14,-137.75 60.54,-82.01 143.29,-122.36 248.23,-121.07 10.18,0.13 19.86,0.64 28.99,1.5 10.01,0.91 18.97,2.01 26.75,3.24l3.83 0.66 0.12 -0.66c154.57,27.11 236.51,117.44 245.81,270.95 5.03,3.73 10.03,7.64 14.99,11.72 13.44,11.07 25.71,22.93 36.79,35.58 60.38,-25.04 122.49,-37.17 186.28,-36.39 65.57,0.84 125.11,15.12 178.61,42.87 58.01,30.05 105.5,72.95 142.47,128.64l0.74 1.15 0.25 -0.16c25.6,39.14 44.96,84.14 58.01,134.92 11.57,44.98 17.36,90.02 17.36,135.1 0,18.7 -1.21,38.96 -3.62,60.78 8.54,25.83 12.72,52.59 12.7,79.26l1.19 0c0,27.91 -3.52,57.09 -10.6,87.49 -5.55,23.82 -13.86,48.7 -24.88,74.57 -1.63,3.81 -3.33,7.57 -5.12,11.25 -24.15,58.23 -42.31,109.23 -54.47,152.9l-1.79 6.54 5.79 5.88 0.18 -0.17c22.9,23.99 40.91,51.32 53.83,82.21 4.57,11.01 8.29,22.16 11.22,33.38 6.43,22.94 9.68,46.03 9.68,69.34 0,42.03 -9.07,82.49 -27.08,121.36 -15.11,32.5 -35.28,61.17 -60.42,85.93 -28.6,29.18 -62.5,51.8 -101.61,67.74l0.14 0.35c-36.96,14.99 -77.13,22.21 -120.44,21.69 -28.66,-0.42 -55.14,-3.9 -79.28,-10.42 -20.64,-5.54 -41.64,-13.51 -62.94,-23.85 -5.23,-2.53 -10.32,-5.22 -15.3,-8.05 -11.67,-6.09 -22.87,-12.7 -33.59,-19.83 -26.09,15.45 -52.34,28.61 -78.77,39.47 -61.22,25.14 -122.51,37.32 -183.85,36.55l-0.91 -0.02c-18.33,-0.25 -34.49,-1.36 -48.42,-3.28 -17.79,-2.48 -33.92,-5.66 -48.31,-9.53 -5.83,-1.56 -11.54,-3.31 -17.16,-5.25 -33.08,-10.38 -63.22,-24.52 -90.42,-42.41 -7.97,0.43 -16,0.59 -24.11,0.49 -6.53,-0.08 -13,-0.33 -19.39,-0.75 -12.5,6.17 -25.39,11.51 -38.66,16 -35.41,11.98 -73.37,17.69 -113.75,17.21 -30.43,-0.42 -59.64,-4.49 -87.54,-12.23 -26.95,-7.45 -52.93,-18.17 -77.86,-32.08l-0.75 -0.43 -0.24 0.43c-10.46,-5.88 -20.5,-12.21 -30.1,-18.99 -25.75,16.16 -51.87,30.01 -78.37,41.53 -73.47,31.96 -146.88,45.25 -220.19,39.85 -32.96,-2.38 -63.88,-7.96 -92.79,-16.72 -18.41,16.54 -39.16,31.06 -62.23,43.52 -28.81,15.58 -59.67,27.16 -92.59,34.7 -28.82,6.61 -59.71,9.73 -92.66,9.31 -99.83,-1.28 -184.08,-32.8 -252.67,-94.44 -48.74,-43.84 -84.31,-99.16 -106.68,-165.95 -4.72,5.45 -9.46,10.67 -14.24,15.68 -70.35,73.89 -150.93,110.28 -241.67,109.17 -55.32,-0.73 -104.35,-12.78 -147.11,-36.1 -30.57,105.69 -128.06,182.98 -243.6,182.98l-438.46 0 0 -0.69c-57.55,-0.03 -113.48,-19.83 -158.19,-55.6 -43.53,35.19 -98.95,56.29 -159.29,56.29l-380.18 0c-113.71,0 -209.94,-74.86 -242.11,-177.99 -32.17,103.13 -128.4,177.99 -242.11,177.99l-380.18 0c-19.17,0 -37.84,-2.14 -55.79,-6.17 -17.94,4.03 -36.61,6.17 -55.78,6.17l-390.31 0 0 -0.3c-31.3,0 -61.91,-5.83 -90.43,-16.75 -24.15,8.76 -48.27,16.17 -72.29,22.28l-0.06 -0.25 -0.94 0.25c-25.65,6.5 -55.2,11.91 -88.66,16.18 -29.79,3.8 -59.92,5.77 -90.39,5.9 -18.53,0.1 -36.06,-0.57 -52.59,-2.03l-9.08 -0.78c-21.67,-2.32 -41.79,-5.28 -60.31,-8.9 -22.25,-4.37 -46.64,-11.06 -73.28,-20.05 -19.93,-6.71 -38.84,-14.05 -56.79,-21.99 -25.41,14.76 -53.84,25.31 -84.51,30.54 -13.14,2.24 -33.53,5.28 -62.04,9.19 -19.2,2.65 -39.59,5.09 -61.26,7.3 -19.45,1.97 -36.87,3.56 -51.45,4.61l-6.96 0.54c-25.82,1.63 -46.61,2.55 -61.06,2.55 -40.55,0 -82.11,-2.24 -124.67,-6.65 -31.41,-3.26 -61.89,-8.16 -91.45,-14.65 -8.64,-1.27 -17.3,-2.99 -25.95,-5.18 -38.94,-9.93 -76.3,-23.51 -112.09,-40.73 -30.81,-14.84 -59.28,-32.43 -85.37,-52.76 -7.35,-5.19 -14.5,-10.81 -21.4,-16.89 -30.14,-26.52 -56.88,-57.75 -80.17,-93.59l-7.72 -12.29c-6.29,6.11 -12.65,12.05 -19.08,17.82l-0.45 -0.5 -0.54 0.5c-32.65,29.26 -66.57,55.29 -101.75,77.82l-0.3 -0.46 -0.7 0.46c-38.88,24.88 -79.37,46.39 -121.43,64.34 -41.18,17.58 -85.26,32.7 -132.23,45.2 -47.78,12.71 -97.02,22.15 -147.51,28.18 -44.84,5.36 -96.94,8.2 -156.17,8.39 -44.7,0.15 -83.79,-0.95 -117.17,-3.27 -41.19,-2.86 -80.35,-7.06 -117.31,-12.51 -37.95,-5.62 -77.9,-13.89 -119.87,-24.85 -39.99,-10.44 -78.77,-22.94 -116.29,-37.53 -40.89,-15.92 -79.66,-34.39 -116.29,-55.25 -37.27,-21.22 -73.15,-45.21 -107.55,-71.76 -36.15,-27.93 -69.88,-58.57 -101.05,-91.85 -24.87,-26.55 -49.28,-56.21 -73.17,-88.96l-6.79 -8.34c-85.88,-110.5 -65.93,-269.71 44.57,-355.59l146.9 -114.14c-20.57,-20.68 -39.7,-42.94 -57.39,-66.78 -25.92,-34.96 -48.43,-73.31 -67.41,-114.93 -20.45,-44.81 -35.77,-92.37 -45.5,-142.39 -8.47,-43.67 -12.92,-92.45 -12.98,-146.3 -0.09,-57.72 5.32,-111.27 16,-160.52 11.19,-51.62 29.04,-102.83 53.21,-153.33 22.88,-47.71 50.68,-92.24 83.32,-133.54 27.6,-34.93 58.1,-67.02 91.46,-96.23 5.76,-5.73 11.85,-11.24 18.27,-16.49 40.19,-32.93 83.97,-62.05 131.19,-87.12 43.33,-23.01 92.06,-43.26 146.18,-60.57 52.11,-16.7 105.57,-29.01 160.21,-36.95 50.6,-7.36 106.48,-11.14 167.44,-11.36 47.51,-0.17 92.28,2.04 134.18,6.62 44.18,4.82 88.85,12.35 133.97,22.59 48.78,11.07 94.8,25.1 137.84,41.98 44.31,17.38 87.45,38.27 129.29,62.59z"/>
   <path class="fil0" d="M8241.74 1179.05c8.83,-40.03 13.2,-77.08 13.2,-111.19 0,-75.24 -22.49,-113.13 -67.54,-113.68 -46.97,-0.59 -100.55,31.59 -160.77,96.56 -60.22,64.93 -112.33,145.3 -156.4,241.02 -53.83,115.69 -80.75,223.18 -80.75,322.48 0,52.15 11.27,83.9 33.76,95.21 8.8,4.12 18.59,6.23 29.36,6.35 59.71,0.76 135.12,-58.49 226.17,-177.73 84.16,-109.26 133.11,-197.91 146.82,-265.95 -2.95,-28.13 -3.4,-47.19 -1.47,-57.2 0.97,-5.01 6.85,-16.95 17.62,-35.88zm-6744.67 -636.08c-45.84,-58.29 -99.13,-105.27 -159.77,-140.55 -60.9,-35.41 -126.42,-61.07 -195.81,-76.83 -69.68,-15.81 -140.6,-23.51 -212.68,-23.26 -91.64,0.34 -175.37,12.37 -250.4,36.42 -75.16,24.06 -139.96,58.71 -194.17,103.12 -54.21,44.46 -96.13,97.44 -125.7,159.1 -29.31,61.23 -44.58,129.79 -44.45,204.89 0.08,71.75 12.61,133.1 35.7,183.7 23,50.43 54.38,92.65 93.69,126.38 39.12,33.55 83.31,61.36 132.43,82.93 48.87,21.44 99.51,39.44 151.7,53.24 52.18,13.75 102.82,25.95 151.99,36.71 48.82,10.72 93.07,22.24 132.47,34.4 39.03,12.03 70.44,27.37 93.66,45.5 22.88,17.83 35.07,41.5 35.41,70.1 0.25,22.5 -7.91,44.12 -24.27,64.34 -16.23,20.1 -42.14,36.42 -77.5,49.21 -35.41,12.82 -81.92,19.89 -138.87,19.89 -78.18,0 -149.75,-16.78 -214.68,-48.87 -65.06,-32.17 -121.67,-78.18 -169.53,-137.18l-262.89 204.26c40.45,57.95 85.71,106.14 135.46,144.58 49.59,38.28 103.12,69.02 160.44,91.35 57.53,22.37 118.04,38.1 181.68,47.52 63.3,9.33 129.49,14.05 197.82,13.8 89.28,-0.3 169.27,-10.01 239.29,-28.64 70.1,-18.67 130.75,-44.83 182.35,-77.84 51.56,-33.02 93.99,-71.49 127.73,-114.6 33.68,-43.15 58.7,-89.37 75.15,-138.53 16.49,-49.12 24.82,-99.13 24.61,-149.97 -0.34,-77.46 -12.45,-142.98 -36.09,-196.81 -23.46,-53.58 -55.3,-98.12 -95,-133.15 -39.73,-34.99 -84.74,-63.21 -134.49,-84.57 -49.59,-21.32 -101.14,-39.32 -154.01,-52.23 -52.82,-12.91 -104.55,-24.39 -154.05,-34.06 -49.8,-9.75 -94.71,-20.57 -134.46,-32.01 -39.78,-11.48 -71.45,-26.79 -95.04,-45.17 -23.46,-18.25 -35.96,-42.85 -36.08,-73.13 -0.09,-23.55 8.33,-43.36 23.59,-59.64 15.26,-16.31 36.8,-28.76 64.05,-37.09 27.54,-8.46 59.71,-12.41 96.39,-12.49 66.36,-0.13 125.74,10.17 177.94,31.37 52.18,21.15 99.42,55.94 141.56,104.13l254.81 -210.31zm118.97 487.33l171.67 0 0 566.23c0,47.81 5.51,90.33 17.2,126.37 11.82,36.38 31.59,66.95 59.34,91.35 27.8,24.43 65.77,42.64 113.88,54.92 47.9,12.28 107.54,18.55 179.66,18.55 28.64,0 60.35,-2.24 94.71,-5.72 34.65,-3.53 69.76,-8.42 105.47,-14.51l0 -252.75c-9.07,2.02 -18.88,4.41 -29.64,6.39 -10.77,2.02 -21.28,3.91 -31,5.38 -9.79,1.52 -17.87,2.36 -24.27,2.36 -20.56,0 -38.52,-2.91 -54.29,-9.08 -15.85,-6.22 -27.88,-16.23 -37.05,-29.65 -9,-13.2 -13.84,-30.66 -13.84,-52.23l0 -507.6 173.01 0 0 -246.69 -173.01 0 0 -378.16 -380.18 0 0 378.16 -171.67 0 0 246.69zm1168.63 91.01c7.07,-26.96 16.53,-50.56 27.96,-70.06 11.44,-19.56 27.09,-34.65 46.51,-45.17 19.6,-10.64 44.54,-16.02 75.16,-16.19 23.26,-0.13 44.5,3.02 63.71,9.75 19.22,6.77 34.19,18.04 45.84,33.72 11.56,15.6 17.87,36.76 17.87,63.67l0 88.99c-62.71,0.33 -125.07,4.41 -186.39,12.49 -61.65,8.08 -119.64,21.03 -174.57,38.74 -54.54,17.62 -103.12,41.21 -145.3,70.77 -42.39,29.73 -75.41,65.77 -99.75,109.22 -24.14,43.15 -37.05,94.03 -37.05,153 0,52.23 8.33,97.02 23.25,133.82 15.02,36.97 34.4,67.41 58.63,91.3 24.56,24.27 50.89,42.9 79.23,56.32 28.55,13.5 56.31,22.87 83.9,28.3 27.29,5.34 51.27,7.86 72.46,7.74 40.07,-0.17 79.53,-5.22 118.63,-15.14 39.03,-9.92 76.46,-24.1 111.91,-42.81 35.28,-18.63 67.71,-41.13 97.06,-67.42 1.01,17.54 2.86,34.78 5.72,51.56 2.86,16.86 6.39,32.05 10.43,45.5l390.31 0c-9.46,-14.18 -17.2,-31.04 -22.92,-51.23 -5.68,-19.9 -10.01,-40.45 -12.83,-61.7 -2.82,-21.15 -4.58,-40.79 -5.38,-58.62 -0.8,-17.49 -1.35,-31.33 -1.35,-40.79l0 -576.33c0,-34.02 -3.91,-66.7 -12.15,-98.07 -8.21,-31.25 -22.8,-59.89 -43.11,-86.26 -20.4,-26.5 -48.58,-49.58 -84.95,-69.1 -36.38,-19.56 -82.26,-34.73 -137.86,-45.5 -55.6,-10.76 -122.72,-16.35 -201.19,-16.52 -53.58,-0.13 -106.15,4.58 -157.75,14.51 -51.47,9.88 -99.17,25.82 -143.24,48.53 -44.16,22.75 -81.59,53.58 -112.87,92.36 -31.04,38.35 -52.95,86.59 -65.4,143.91l315.46 66.7zm274.99 471.18c-26.96,19.22 -52.56,34.4 -77.16,44.84 -24.57,10.38 -50.56,15.85 -78.52,15.85 -10.43,0 -22.33,-2.28 -35.41,-6.77 -13.17,-4.54 -25.95,-11.82 -38.4,-21.24 -12.45,-9.37 -22.75,-21.48 -31,-36.04 -8.2,-14.43 -12.49,-31.67 -12.49,-51.23 0,-25.27 6.23,-47.35 17.88,-65.39 11.56,-17.96 27.24,-33.19 46.84,-45.5 19.43,-12.24 41.17,-22.12 65.06,-29.65 23.93,-7.57 48.15,-14.05 72.76,-18.54 24.89,-4.54 48.19,-8.08 70.43,-10.77l0 224.45zm522.12 266.93l380.18 0 0 -687.56c27.62,-23.59 55.64,-41.46 83.56,-53.91 27.96,-12.45 59.68,-18.72 94.37,-18.89 27.29,-0.12 58.66,4.08 93.36,12.83 34.7,8.75 72.47,22.58 112.92,41.8l0 -398.38c-36.76,2.02 -73.51,7.65 -109.89,16.86 -36.72,9.29 -72.17,22.2 -106.14,38.78 -33.73,16.4 -64.6,36.59 -92.7,59.97 -28.13,23.42 -51.89,50.21 -71.45,80.54l-4.03 0 0 -167.84 -380.18 0 0 1075.81zm864.4 0l380.18 0 0 -315.46 121.33 -125.36 4.03 0 192.11 440.82 438.46 0 -108.92 -221c136.71,-223.48 260.23,-416.68 370.46,-579.52 184.04,-270.53 293.16,-397.54 327.45,-381.06 2.94,1.01 4.41,5.55 4.41,13.59 0,25.07 -18.13,100.55 -54.34,226.51 -88.1,299.81 -153.21,519.17 -195.3,658.04 -5.89,20.99 -8.8,40.54 -8.8,58.58 0,52.14 19.56,78.47 58.71,78.98 34.27,0.42 73.93,-41.22 118.93,-124.9 96.93,-179.36 188.95,-341.2 276.09,-485.57 120.4,-201.11 191.34,-299.52 212.88,-295.23 6.86,1.1 10.3,12.66 10.3,34.74 0,32.09 -5.89,73.13 -17.62,123.14 -28.38,113 -56.78,225.5 -85.16,337.44 -28.39,123.06 -42.6,225.17 -42.6,306.41 0,44.12 3.9,84.79 11.77,122.01 15.64,77.42 59.21,116.58 130.66,117.5 23.51,0.3 44.29,-4.49 62.42,-14.3 18.12,-9.79 25.69,-20.74 22.74,-32.8 -3.9,-21.12 -16.6,-31.8 -38.18,-32.05 -1.94,-0.05 -6.36,0.42 -13.21,1.3 -5.85,-0.08 -10.77,-0.12 -14.68,-0.17 -29.36,-0.38 -48.96,-16.65 -58.75,-48.87 -9.75,-32.21 -14.68,-70.39 -14.68,-114.51 0,-73.26 13.71,-169.86 41.13,-289.89 13.71,-57.99 42.09,-166.49 85.16,-325.42 21.53,-77.97 32.3,-141.52 32.3,-190.67 0,-65.18 -18.59,-100.51 -55.81,-106.02 -45,-6.56 -92.99,17.92 -143.91,73.43 -41.09,43.66 -94.92,120.2 -161.49,229.71 -67.54,114.51 -135.08,229.03 -202.66,343.5 -52.86,87.61 -81.25,130.92 -85.16,129.87 -0.97,-1.05 -1.47,-2.52 -1.47,-4.54 0,-5 17.15,-59.46 51.38,-163.38 67.54,-201.74 117.51,-366.13 149.8,-493.09 16.61,-65.99 24.94,-116.54 24.94,-151.65 0,-49.17 -14.68,-77.42 -44.03,-84.83 -8.84,-2.11 -18.13,-3.23 -27.88,-3.32 -48.96,-0.63 -105.27,35.03 -168.9,106.95 -63.62,71.95 -134.83,166.57 -213.64,283.95 -78.81,117.38 -157.37,234.75 -235.68,352.13 -16.65,24.9 -41.12,59.68 -73.43,104.43 -19.6,22.83 -38.69,46.17 -57.28,69.97 34.27,-96.85 68.51,-193.7 102.78,-290.6 52.86,-161.82 92.99,-311.25 120.41,-448.35 11.77,-59 17.62,-113.63 17.62,-163.76 0,-103.33 -24.48,-183.87 -73.43,-241.65 -43.07,-50.68 -102.28,-79.99 -177.65,-87.98 -20.57,-2.23 -41.63,-3.48 -63.17,-3.78 -167.38,-2.06 -325.97,52.11 -475.77,162.59 -26.2,19.13 -51.1,39.11 -74.73,59.97l0 -144.59 -380.18 0 0 1528.79zm932.03 -414.11l-159.52 -323.61 331.98 -382.2 -361.96 0 -362.35 444.52 0 -581.97c33.23,-37.05 70.4,-72.58 111.45,-106.6 141.94,-118.59 290.26,-176.93 444.94,-174.99 14.68,0.17 28.89,0.84 42.56,2.02 114.56,10.47 171.84,103.46 171.84,278.99 0,46.14 -3.91,87.68 -11.78,124.74 -39.15,180.03 -80.24,336.98 -123.35,470.84 -3.99,12.33 -31.96,95.13 -83.81,248.26zm2972.2 -239.34c0,19.06 -4.88,40.04 -14.68,63.01 -62.67,148.66 -93.99,261.12 -93.99,337.36 0,47.14 12.74,76.37 38.19,87.72 11.73,3.15 28.38,11.4 49.92,24.69 2.95,3.07 4.41,6.6 4.41,10.6 0,11.01 -4.41,20.52 -13.21,28.42 -9.79,10.89 -23,16.27 -39.65,16.06 -10.76,-0.16 -22.5,-3.31 -35.24,-9.5 -49.92,-21.65 -74.9,-75.15 -74.9,-160.39 0,-19.05 1.47,-42.6 4.41,-70.65 -54.84,75.54 -111.62,136.04 -170.33,181.43 -64.63,49.37 -123.85,73.68 -177.68,73 -11.74,-0.12 -23.51,-1.76 -35.24,-4.91 -59.72,-15.81 -89.58,-71.33 -89.58,-166.62 0,-96.31 24.98,-201.32 74.91,-315.04 52.86,-119.68 112.53,-216.75 179.1,-291.15 79.32,-90.29 158.13,-134.95 236.44,-133.99 49.92,0.64 87.6,20.19 113.08,58.58 22.5,34.4 33.77,78.18 33.77,131.34 0,39.12 -5.89,76.66 -17.62,112.62 7.82,4.12 17.11,13.25 27.88,27.41zm-630.2 10.22c-25.45,53.83 -50.89,108.17 -76.37,163.05 -35.24,87.8 -49.92,164.86 -44.03,231.14 1.98,25.1 12.23,38.27 30.82,39.48 4.92,0.08 10.77,-1.35 17.62,-4.29 6.86,-2.95 11.78,-4.37 14.69,-4.33 6.85,0.09 14.21,6.69 22.03,19.86 5.89,11.1 -1.22,25.06 -21.28,41.84 -20.06,16.82 -41.84,25.07 -65.35,24.77 -34.27,-0.42 -58.24,-21.27 -71.95,-62.58 -6.86,-21.15 -10.26,-46.26 -10.26,-75.37 0,-84.23 34.73,-220.24 104.26,-407.94 29.35,-39.73 57.73,-61.99 85.16,-66.65 18.59,3.23 27.88,17.91 27.88,43.99 0,19.05 -4.37,38.06 -13.21,57.03zm102.78 -329.71c-14.68,27.88 -38.19,44.63 -70.48,50.26 -6.86,0.93 -13.21,1.35 -19.09,1.27 -31.34,-0.38 -46.98,-15.64 -46.98,-45.71 0,-11.02 1.98,-23.05 5.89,-36.04 10.76,-34.95 39.16,-52.15 85.16,-51.6 11.74,0.17 23.51,5.04 35.24,14.72 11.74,9.67 17.62,22.08 17.62,37.1 0,10.04 -2.44,20.06 -7.36,30.02zm-478.71 407.77c15.68,-54.96 23.5,-102.02 23.5,-141.14 0,-78.22 -26.92,-117.67 -80.75,-118.34 -51.89,-0.67 -113.79,36.42 -185.75,111.29 -71.95,74.82 -124.1,154.17 -156.4,238.03 -34.27,88.82 -51.39,162.84 -51.39,222.01 0,59.17 19.1,91.51 57.29,97.02 40.11,5.51 88.6,-14.47 145.38,-59.89 46.97,-36.54 85.63,-77.67 115.99,-123.43 57.74,-86.55 101.81,-161.74 132.14,-225.55zm324.53 -703.08c24.48,4.29 36.72,21.49 36.72,51.6 0,27.09 -13.21,74.06 -39.66,140.93 -11.73,29.94 -60.68,142.18 -146.81,336.69 -79.32,179.57 -118.97,332.53 -118.97,458.91 0,30.06 2.48,58.7 7.36,85.83 2.95,14.09 17.62,21.78 44.03,23.13 26.46,1.35 41.64,8.04 45.54,20.15 2.95,10.05 -2.69,21.27 -16.9,33.6 -14.18,12.4 -32.05,18.42 -53.58,18.16 -15.68,-0.21 -30.87,-4.41 -45.54,-12.61 -40.12,-22.54 -60.18,-83.48 -60.18,-182.78 0,-24.1 0.97,-52.14 2.95,-84.23 -53.87,85.58 -110.14,154.59 -168.89,207.04 -73.43,65.26 -142.9,95.5 -208.51,90.67 -84.19,-6.06 -126.29,-69.77 -126.29,-191.14 0,-27.09 2.45,-55.14 7.36,-84.15 22.5,-125.11 81.26,-246.74 176.22,-364.92 101.81,-126.12 199.21,-186.59 292.2,-181.42 74.4,3.9 123.86,38.14 148.32,102.65 46.01,-115.78 95.42,-246.56 148.28,-392.33 1.02,-52.14 20.11,-78.01 57.29,-77.55 5.89,0.09 12.24,0.68 19.09,1.77zm-561.56 154.97c-39.2,33.6 -108.67,105.44 -208.54,215.53 -9.76,10.93 -17.58,16.32 -23.47,16.27 -5.89,-0.08 -12.74,-2.94 -20.57,-8.54 -7.82,-5.59 -11.73,-11.43 -11.73,-17.45 0,-3.99 3.4,-10.97 10.26,-20.95 51.89,-74.56 113.08,-151.02 183.53,-229.41 9.79,-10.89 18.12,-16.31 24.98,-16.23 7.83,0.09 18.13,3.74 30.83,10.94 22.54,11.31 33.76,20.99 33.76,28.97 0,3.02 -6.35,9.96 -19.05,20.86zm-272.52 458.99c-25.44,53.87 -50.89,108.21 -76.32,163.05 -35.24,87.85 -49.92,164.9 -44.08,231.18 1.98,25.06 12.24,38.27 30.83,39.48 4.92,0.05 10.8,-1.39 17.62,-4.28 6.86,-2.95 11.77,-4.37 14.72,-4.33 6.86,0.08 14.18,6.69 21.99,19.81 5.89,11.14 -1.22,25.07 -21.27,41.88 -20.06,16.78 -41.85,25.07 -65.35,24.78 -34.23,-0.42 -58.25,-21.32 -71.92,-62.59 -6.85,-21.15 -10.3,-46.8 -10.3,-76.87 0,-89.28 34.74,-224.74 104.26,-406.42 19.6,-50.93 47.98,-73.14 85.16,-66.66 18.63,3.23 27.92,17.92 27.92,43.99 0,19.06 -4.41,38.07 -13.25,56.99z"/>
   <path class="fil1" d="M8241.74 1179.05c8.83,-40.03 13.2,-77.08 13.2,-111.19 0,-75.24 -22.49,-113.13 -67.54,-113.68 -46.97,-0.59 -100.55,31.59 -160.77,96.56 -60.22,64.93 -112.33,145.3 -156.4,241.02 -53.83,115.69 -80.75,223.18 -80.75,322.48 0,52.15 11.27,83.9 33.76,95.21 8.8,4.12 18.59,6.23 29.36,6.35 59.71,0.76 135.12,-58.49 226.17,-177.73 84.16,-109.26 133.11,-197.91 146.82,-265.95 -2.95,-28.13 -3.4,-47.19 -1.47,-57.2 0.97,-5.01 6.85,-16.95 17.62,-35.88zm-6744.67 -636.08c-45.84,-58.29 -99.13,-105.27 -159.77,-140.55 -60.9,-35.41 -126.42,-61.07 -195.81,-76.83 -69.68,-15.81 -140.6,-23.51 -212.68,-23.26 -91.64,0.34 -175.37,12.37 -250.4,36.42 -75.16,24.06 -139.96,58.71 -194.17,103.12 -54.21,44.46 -96.13,97.44 -125.7,159.1 -29.31,61.23 -44.58,129.79 -44.45,204.89 0.08,71.75 12.61,133.1 35.7,183.7 23,50.43 54.38,92.65 93.69,126.38 39.12,33.55 83.31,61.36 132.43,82.93 48.87,21.44 99.51,39.44 151.7,53.24 52.18,13.75 102.82,25.95 151.99,36.71 48.82,10.72 93.07,22.24 132.47,34.4 39.03,12.03 70.44,27.37 93.66,45.5 22.88,17.83 35.07,41.5 35.41,70.1 0.25,22.5 -7.91,44.12 -24.27,64.34 -16.23,20.1 -42.14,36.42 -77.5,49.21 -35.41,12.82 -81.92,19.89 -138.87,19.89 -78.18,0 -149.75,-16.78 -214.68,-48.87 -65.06,-32.17 -121.67,-78.18 -169.53,-137.18l-262.89 204.26c40.45,57.95 85.71,106.14 135.46,144.58 49.59,38.28 103.12,69.02 160.44,91.35 57.53,22.37 118.04,38.1 181.68,47.52 63.3,9.33 129.49,14.05 197.82,13.8 89.28,-0.3 169.27,-10.01 239.29,-28.64 70.1,-18.67 130.75,-44.83 182.35,-77.84 51.56,-33.02 93.99,-71.49 127.73,-114.6 33.68,-43.15 58.7,-89.37 75.15,-138.53 16.49,-49.12 24.82,-99.13 24.61,-149.97 -0.34,-77.46 -12.45,-142.98 -36.09,-196.81 -23.46,-53.58 -55.3,-98.12 -95,-133.15 -39.73,-34.99 -84.74,-63.21 -134.49,-84.57 -49.59,-21.32 -101.14,-39.32 -154.01,-52.23 -52.82,-12.91 -104.55,-24.39 -154.05,-34.06 -49.8,-9.75 -94.71,-20.57 -134.46,-32.01 -39.78,-11.48 -71.45,-26.79 -95.04,-45.17 -23.46,-18.25 -35.96,-42.85 -36.08,-73.13 -0.09,-23.55 8.33,-43.36 23.59,-59.64 15.26,-16.31 36.8,-28.76 64.05,-37.09 27.54,-8.46 59.71,-12.41 96.39,-12.49 66.36,-0.13 125.74,10.17 177.94,31.37 52.18,21.15 99.42,55.94 141.56,104.13l254.81 -210.31zm118.97 487.33l171.67 0 0 566.23c0,47.81 5.51,90.33 17.2,126.37 11.82,36.38 31.59,66.95 59.34,91.35 27.8,24.43 65.77,42.64 113.88,54.92 47.9,12.28 107.54,18.55 179.66,18.55 28.64,0 60.35,-2.24 94.71,-5.72 34.65,-3.53 69.76,-8.42 105.47,-14.51l0 -252.75c-9.07,2.02 -18.88,4.41 -29.64,6.39 -10.77,2.02 -21.28,3.91 -31,5.38 -9.79,1.52 -17.87,2.36 -24.27,2.36 -20.56,0 -38.52,-2.91 -54.29,-9.08 -15.85,-6.22 -27.88,-16.23 -37.05,-29.65 -9,-13.2 -13.84,-30.66 -13.84,-52.23l0 -507.6 173.01 0 0 -246.69 -173.01 0 0 -378.16 -380.18 0 0 378.16 -171.67 0 0 246.69zm1168.63 91.01c7.07,-26.96 16.53,-50.56 27.96,-70.06 11.44,-19.56 27.09,-34.65 46.51,-45.17 19.6,-10.64 44.54,-16.02 75.16,-16.19 23.26,-0.13 44.5,3.02 63.71,9.75 19.22,6.77 34.19,18.04 45.84,33.72 11.56,15.6 17.87,36.76 17.87,63.67l0 88.99c-62.71,0.33 -125.07,4.41 -186.39,12.49 -61.65,8.08 -119.64,21.03 -174.57,38.74 -54.54,17.62 -103.12,41.21 -145.3,70.77 -42.39,29.73 -75.41,65.77 -99.75,109.22 -24.14,43.15 -37.05,94.03 -37.05,153 0,52.23 8.33,97.02 23.25,133.82 15.02,36.97 34.4,67.41 58.63,91.3 24.56,24.27 50.89,42.9 79.23,56.32 28.55,13.5 56.31,22.87 83.9,28.3 27.29,5.34 51.27,7.86 72.46,7.74 40.07,-0.17 79.53,-5.22 118.63,-15.14 39.03,-9.92 76.46,-24.1 111.91,-42.81 35.28,-18.63 67.71,-41.13 97.06,-67.42 1.01,17.54 2.86,34.78 5.72,51.56 2.86,16.86 6.39,32.05 10.43,45.5l390.31 0c-9.46,-14.18 -17.2,-31.04 -22.92,-51.23 -5.68,-19.9 -10.01,-40.45 -12.83,-61.7 -2.82,-21.15 -4.58,-40.79 -5.38,-58.62 -0.8,-17.49 -1.35,-31.33 -1.35,-40.79l0 -576.33c0,-34.02 -3.91,-66.7 -12.15,-98.07 -8.21,-31.25 -22.8,-59.89 -43.11,-86.26 -20.4,-26.5 -48.58,-49.58 -84.95,-69.1 -36.38,-19.56 -82.26,-34.73 -137.86,-45.5 -55.6,-10.76 -122.72,-16.35 -201.19,-16.52 -53.58,-0.13 -106.15,4.58 -157.75,14.51 -51.47,9.88 -99.17,25.82 -143.24,48.53 -44.16,22.75 -81.59,53.58 -112.87,92.36 -31.04,38.35 -52.95,86.59 -65.4,143.91l315.46 66.7zm274.99 471.18c-26.96,19.22 -52.56,34.4 -77.16,44.84 -24.57,10.38 -50.56,15.85 -78.52,15.85 -10.43,0 -22.33,-2.28 -35.41,-6.77 -13.17,-4.54 -25.95,-11.82 -38.4,-21.24 -12.45,-9.37 -22.75,-21.48 -31,-36.04 -8.2,-14.43 -12.49,-31.67 -12.49,-51.23 0,-25.27 6.23,-47.35 17.88,-65.39 11.56,-17.96 27.24,-33.19 46.84,-45.5 19.43,-12.24 41.17,-22.12 65.06,-29.65 23.93,-7.57 48.15,-14.05 72.76,-18.54 24.89,-4.54 48.19,-8.08 70.43,-10.77l0 224.45zm522.12 266.93l380.18 0 0 -687.56c27.62,-23.59 55.64,-41.46 83.56,-53.91 27.96,-12.45 59.68,-18.72 94.37,-18.89 27.29,-0.12 58.66,4.08 93.36,12.83 34.7,8.75 72.47,22.58 112.92,41.8l0 -398.38c-36.76,2.02 -73.51,7.65 -109.89,16.86 -36.72,9.29 -72.17,22.2 -106.14,38.78 -33.73,16.4 -64.6,36.59 -92.7,59.97 -28.13,23.42 -51.89,50.21 -71.45,80.54l-4.03 0 0 -167.84 -380.18 0 0 1075.81zm864.4 0l380.18 0 0 -315.46 121.33 -125.36 4.03 0 192.11 440.82 438.46 0 -108.92 -221c136.71,-223.48 260.23,-416.68 370.46,-579.52 184.04,-270.53 293.16,-397.54 327.45,-381.06 2.94,1.01 4.41,5.55 4.41,13.59 0,25.07 -18.13,100.55 -54.34,226.51 -88.1,299.81 -153.21,519.17 -195.3,658.04 -5.89,20.99 -8.8,40.54 -8.8,58.58 0,52.14 19.56,78.47 58.71,78.98 34.27,0.42 73.93,-41.22 118.93,-124.9 96.93,-179.36 188.95,-341.2 276.09,-485.57 120.4,-201.11 191.34,-299.52 212.88,-295.23 6.86,1.1 10.3,12.66 10.3,34.74 0,32.09 -5.89,73.13 -17.62,123.14 -28.38,113 -56.78,225.5 -85.16,337.44 -28.39,123.06 -42.6,225.17 -42.6,306.41 0,44.12 3.9,84.79 11.77,122.01 15.64,77.42 59.21,116.58 130.66,117.5 23.51,0.3 44.29,-4.49 62.42,-14.3 18.12,-9.79 25.69,-20.74 22.74,-32.8 -3.9,-21.12 -16.6,-31.8 -38.18,-32.05 -1.94,-0.05 -6.36,0.42 -13.21,1.3 -5.85,-0.08 -10.77,-0.12 -14.68,-0.17 -29.36,-0.38 -48.96,-16.65 -58.75,-48.87 -9.75,-32.21 -14.68,-70.39 -14.68,-114.51 0,-73.26 13.71,-169.86 41.13,-289.89 13.71,-57.99 42.09,-166.49 85.16,-325.42 21.53,-77.97 32.3,-141.52 32.3,-190.67 0,-65.18 -18.59,-100.51 -55.81,-106.02 -45,-6.56 -92.99,17.92 -143.91,73.43 -41.09,43.66 -94.92,120.2 -161.49,229.71 -67.54,114.51 -135.08,229.03 -202.66,343.5 -52.86,87.61 -81.25,130.92 -85.16,129.87 -0.97,-1.05 -1.47,-2.52 -1.47,-4.54 0,-5 17.15,-59.46 51.38,-163.38 67.54,-201.74 117.51,-366.13 149.8,-493.09 16.61,-65.99 24.94,-116.54 24.94,-151.65 0,-49.17 -14.68,-77.42 -44.03,-84.83 -8.84,-2.11 -18.13,-3.23 -27.88,-3.32 -48.96,-0.63 -105.27,35.03 -168.9,106.95 -63.62,71.95 -134.83,166.57 -213.64,283.95 -78.81,117.38 -157.37,234.75 -235.68,352.13 -16.65,24.9 -41.12,59.68 -73.43,104.43 -19.6,22.83 -38.69,46.17 -57.28,69.97 34.27,-96.85 68.51,-193.7 102.78,-290.6 52.86,-161.82 92.99,-311.25 120.41,-448.35 11.77,-59 17.62,-113.63 17.62,-163.76 0,-103.33 -24.48,-183.87 -73.43,-241.65 -43.07,-50.68 -102.28,-79.99 -177.65,-87.98 -20.57,-2.23 -41.63,-3.48 -63.17,-3.78 -167.38,-2.06 -325.97,52.11 -475.77,162.59 -26.2,19.13 -51.1,39.11 -74.73,59.97l0 -144.59 -380.18 0 0 1528.79zm932.03 -414.11l-159.52 -323.61 331.98 -382.2 -361.96 0 -362.35 444.52 0 -581.97c33.23,-37.05 70.4,-72.58 111.45,-106.6 141.94,-118.59 290.26,-176.93 444.94,-174.99 14.68,0.17 28.89,0.84 42.56,2.02 114.56,10.47 171.84,103.46 171.84,278.99 0,46.14 -3.91,87.68 -11.78,124.74 -39.15,180.03 -80.24,336.98 -123.35,470.84 -3.99,12.33 -31.96,95.13 -83.81,248.26zm2972.2 -239.34c0,19.06 -4.88,40.04 -14.68,63.01 -62.67,148.66 -93.99,261.12 -93.99,337.36 0,47.14 12.74,76.37 38.19,87.72 11.73,3.15 28.38,11.4 49.92,24.69 2.95,3.07 4.41,6.6 4.41,10.6 0,11.01 -4.41,20.52 -13.21,28.42 -9.79,10.89 -23,16.27 -39.65,16.06 -10.76,-0.16 -22.5,-3.31 -35.24,-9.5 -49.92,-21.65 -74.9,-75.15 -74.9,-160.39 0,-19.05 1.47,-42.6 4.41,-70.65 -54.84,75.54 -111.62,136.04 -170.33,181.43 -64.63,49.37 -123.85,73.68 -177.68,73 -11.74,-0.12 -23.51,-1.76 -35.24,-4.91 -59.72,-15.81 -89.58,-71.33 -89.58,-166.62 0,-96.31 24.98,-201.32 74.91,-315.04 52.86,-119.68 112.53,-216.75 179.1,-291.15 79.32,-90.29 158.13,-134.95 236.44,-133.99 49.92,0.64 87.6,20.19 113.08,58.58 22.5,34.4 33.77,78.18 33.77,131.34 0,39.12 -5.89,76.66 -17.62,112.62 7.82,4.12 17.11,13.25 27.88,27.41zm-630.2 10.22c-25.45,53.83 -50.89,108.17 -76.37,163.05 -35.24,87.8 -49.92,164.86 -44.03,231.14 1.98,25.1 12.23,38.27 30.82,39.48 4.92,0.08 10.77,-1.35 17.62,-4.29 6.86,-2.95 11.78,-4.37 14.69,-4.33 6.85,0.09 14.21,6.69 22.03,19.86 5.89,11.1 -1.22,25.06 -21.28,41.84 -20.06,16.82 -41.84,25.07 -65.35,24.77 -34.27,-0.42 -58.24,-21.27 -71.95,-62.58 -6.86,-21.15 -10.26,-46.26 -10.26,-75.37 0,-84.23 34.73,-220.24 104.26,-407.94 29.35,-39.73 57.73,-61.99 85.16,-66.65 18.59,3.23 27.88,17.91 27.88,43.99 0,19.05 -4.37,38.06 -13.21,57.03zm102.78 -329.71c-14.68,27.88 -38.19,44.63 -70.48,50.26 -6.86,0.93 -13.21,1.35 -19.09,1.27 -31.34,-0.38 -46.98,-15.64 -46.98,-45.71 0,-11.02 1.98,-23.05 5.89,-36.04 10.76,-34.95 39.16,-52.15 85.16,-51.6 11.74,0.17 23.51,5.04 35.24,14.72 11.74,9.67 17.62,22.08 17.62,37.1 0,10.04 -2.44,20.06 -7.36,30.02zm-478.71 407.77c15.68,-54.96 23.5,-102.02 23.5,-141.14 0,-78.22 -26.92,-117.67 -80.75,-118.34 -51.89,-0.67 -113.79,36.42 -185.75,111.29 -71.95,74.82 -124.1,154.17 -156.4,238.03 -34.27,88.82 -51.39,162.84 -51.39,222.01 0,59.17 19.1,91.51 57.29,97.02 40.11,5.51 88.6,-14.47 145.38,-59.89 46.97,-36.54 85.63,-77.67 115.99,-123.43 57.74,-86.55 101.81,-161.74 132.14,-225.55zm324.53 -703.08c24.48,4.29 36.72,21.49 36.72,51.6 0,27.09 -13.21,74.06 -39.66,140.93 -11.73,29.94 -60.68,142.18 -146.81,336.69 -79.32,179.57 -118.97,332.53 -118.97,458.91 0,30.06 2.48,58.7 7.36,85.83 2.95,14.09 17.62,21.78 44.03,23.13 26.46,1.35 41.64,8.04 45.54,20.15 2.95,10.05 -2.69,21.27 -16.9,33.6 -14.18,12.4 -32.05,18.42 -53.58,18.16 -15.68,-0.21 -30.87,-4.41 -45.54,-12.61 -40.12,-22.54 -60.18,-83.48 -60.18,-182.78 0,-24.1 0.97,-52.14 2.95,-84.23 -53.87,85.58 -110.14,154.59 -168.89,207.04 -73.43,65.26 -142.9,95.5 -208.51,90.67 -84.19,-6.06 -126.29,-69.77 -126.29,-191.14 0,-27.09 2.45,-55.14 7.36,-84.15 22.5,-125.11 81.26,-246.74 176.22,-364.92 101.81,-126.12 199.21,-186.59 292.2,-181.42 74.4,3.9 123.86,38.14 148.32,102.65 46.01,-115.78 95.42,-246.56 148.28,-392.33 1.02,-52.14 20.11,-78.01 57.29,-77.55 5.89,0.09 12.24,0.68 19.09,1.77zm-561.56 154.97c-39.2,33.6 -108.67,105.44 -208.54,215.53 -9.76,10.93 -17.58,16.32 -23.47,16.27 -5.89,-0.08 -12.74,-2.94 -20.57,-8.54 -7.82,-5.59 -11.73,-11.43 -11.73,-17.45 0,-3.99 3.4,-10.97 10.26,-20.95 51.89,-74.56 113.08,-151.02 183.53,-229.41 9.79,-10.89 18.12,-16.31 24.98,-16.23 7.83,0.09 18.13,3.74 30.83,10.94 22.54,11.31 33.76,20.99 33.76,28.97 0,3.02 -6.35,9.96 -19.05,20.86zm-272.52 458.99c-25.44,53.87 -50.89,108.21 -76.32,163.05 -35.24,87.85 -49.92,164.9 -44.08,231.18 1.98,25.06 12.24,38.27 30.83,39.48 4.92,0.05 10.8,-1.39 17.62,-4.28 6.86,-2.95 11.77,-4.37 14.72,-4.33 6.86,0.08 14.18,6.69 21.99,19.81 5.89,11.14 -1.22,25.07 -21.27,41.88 -20.06,16.78 -41.85,25.07 -65.35,24.78 -34.23,-0.42 -58.25,-21.32 -71.92,-62.59 -6.85,-21.15 -10.3,-46.8 -10.3,-76.87 0,-89.28 34.74,-224.74 104.26,-406.42 19.6,-50.93 47.98,-73.14 85.16,-66.66 18.63,3.23 27.92,17.92 27.92,43.99 0,19.06 -4.41,38.07 -13.25,56.99z"/>
  </g>
 </g>
</svg>
